<?xml version="1.0" encoding="UTF-8"?>
<svg width="119px" height="119px" viewBox="0 0 119 119" version="1.1" xmlns="http://www.w3.org/2000/svg" xmlns:xlink="http://www.w3.org/1999/xlink">
    <!-- Generator: Sketch 49.3 (51167) - http://www.bohemiancoding.com/sketch -->
    <title>dark-square</title>
    <desc>Created with Sketch.</desc>
    <defs></defs>
    <g id="dark-square" stroke="none" stroke-width="1" fill="none" fill-rule="evenodd">
        <path d="M51.595091,37.634084 L60.1682118,32.6843768 L68.9601451,37.7603809 L87.4250294,22.8132115 L87.4250294,48.4211076 L87.4250294,79.8945692 L60.1682118,95.6313 L32.9113941,79.8945692 L32.9113941,53.0710216 L32.8992706,53.0782016 L32.8992706,22.5 L51.595091,37.634084 Z M37.6770116,55.6693472 L37.6770116,77.1431102 L60.1682118,90.1283819 L82.659412,77.1431102 L82.659412,56.004334 L60.1460833,69.2443182 L37.6770116,55.6693472 Z M38.5835712,50.6492527 L60.1789229,63.6963193 L82.0614734,50.8273395 L60.1682118,38.1872949 L38.5835712,50.6492527 Z M73.871716,39.9159024 L82.659412,45.0707684 L82.659412,32.8023167 C79.7302192,35.1734727 76.8009088,37.5446287 73.871716,39.9159024 Z M37.664888,44.7575569 L46.452584,39.6025731 L37.664888,32.4891052 C37.664888,36.5785106 37.664888,40.6680337 37.664888,44.7575569 Z" id="Fill-1" fill="#4642C8"></path>
    </g>
</svg>